polygon
1
  -0.8         47.54
  -0.785       47.550000000000004
  -0.785       47.565
  -0.77        47.58
  -0.71        47.585
  -0.7         47.61
  -0.69        47.615
  -0.675       47.61
  -0.645       47.63
  -0.635       47.625
  -0.605       47.63
  -0.605       47.64
  -0.58        47.660000000000004
  -0.55        47.655
  -0.535       47.635
  -0.515       47.635
  -0.505       47.62
  -0.475       47.61
  -0.445       47.62
  -0.44        47.63
  -0.415       47.63
  -0.39        47.61
  -0.37        47.58
  -0.38        47.54
  -0.355       47.54
  -0.345       47.555
  -0.33        47.56
  -0.315       47.56
  -0.29        47.54
  -0.28        47.51
  -0.285       47.495
  -0.295       47.49
  -0.295       47.465
  -0.305       47.455
  -0.265       47.445
  -0.25        47.43
  -0.25        47.405
  -0.285       47.38
  -0.395       47.4
  -0.49        47.395
  -0.48        47.38
  -0.485       47.33
  -0.505       47.315
  -0.55        47.315
  -0.565       47.33
  -0.56        47.355000000000004
  -0.59        47.36
  -0.605       47.39
  -0.63        47.36
  -0.65        47.35
  -0.685       47.35
  -0.72        47.4
  -0.745       47.405
  -0.75        47.415
  -0.77        47.415
  -0.785       47.455
  -0.78        47.480000000000004
  -0.77        47.49
  -0.795       47.5
  -0.805       47.52
  -0.8         47.54
END
END
