polygon
1
  -0.147       47.2035
  -0.1425      47.240500000000004
  -0.131       47.2765
  -0.129       47.2805
  -0.1285      47.285000000000004
  -0.1175      47.323
  -0.116       47.3255
  -0.11        47.350500000000004
  -0.0965      47.381
  -0.078       47.408500000000004
  -0.0705      47.4165
  -0.061       47.429
  -0.0485      47.4425
  -0.043       47.452
  -0.036       47.4595
  -0.028       47.483000000000004
  -0.0075      47.5175
  -0.006       47.523
  -0.0065      47.5295
  -0.0045      47.5705
  0.0065       47.609500000000004
  0.028        47.6525
  0.0415       47.673500000000004
  0.048        47.693
  0.067        47.7265
  0.092        47.7555
  0.1225       47.779
  0.1565       47.797000000000004
  0.175        47.802
  0.176        47.803000000000004
  0.1935       47.807500000000005
  0.197        47.808
  0.197        47.807
  0.2145       47.811
  0.2655       47.813
  0.276        47.8115
  0.2895       47.8205
  0.3265       47.8355
  0.3655       47.8425
  0.405        47.842
  0.418        47.8395
  0.429        47.8425
  0.4515       47.8455
  0.47         47.85
  0.473        47.852000000000004
  0.4995       47.8615
  0.5165       47.8745
  0.526        47.8805
  0.544        47.89
  0.5905       47.9055
  0.629        47.9095
  0.6695       47.9075
  0.6815       47.9055
  0.7          47.9005
  0.7175       47.894
  0.7315       47.896
  0.7695       47.894
  0.813        47.883
  0.832        47.888
  0.876        47.891
  0.9155       47.885
  0.9535       47.8715
  0.9875       47.850500000000004
  1.017        47.8235
  1.018        47.8215
  1.042        47.8145
  1.0455       47.8125
  1.064        47.8055
  1.111        47.792500000000004
  1.15         47.77
  1.1785       47.744
  1.182        47.7425
  1.2115       47.7205
  1.236        47.6935
  1.2555       47.6625
  1.269        47.628
  1.276        47.592
  1.276        47.5875
  1.295        47.5665
  1.315        47.5325
  1.328        47.495
  1.332        47.466
  1.357        47.451
  1.3825       47.43
  1.3895       47.4215
  1.3945       47.4185
  1.424        47.3925
  1.431        47.383
  1.4365       47.3785
  1.4585       47.352000000000004
  1.4725       47.328
  1.494        47.3055
  1.5065       47.2905
  1.5275       47.2545
  1.5425       47.222
  1.548        47.2075
  1.5555       47.191
  1.565        47.144
  1.5655       47.108000000000004
  1.5595       47.073
  1.548        47.04
  1.5295       47.0075
  1.525        47.0025
  1.504        46.9745
  1.4795       46.9515
  1.459        46.9375
  1.432        46.912
  1.427        46.908500000000004
  1.421        46.9005
  1.3875       46.873
  1.382        46.87
  1.368        46.858000000000004
  1.335        46.839
  1.3075       46.83
  1.2975       46.825
  1.2575       46.816
  1.2195       46.815
  1.215        46.7915
  1.211        46.781
  1.2115       46.7365
  1.203        46.6965
  1.1865       46.6595
  1.163        46.6265
  1.1335       46.5985
  1.099        46.5775
  1.0605       46.5635
  1.0555       46.563
  1.021        46.548
  0.9865       46.539500000000004
  0.9555       46.536500000000004
  0.9375       46.537
  0.903        46.541000000000004
  0.8765       46.5495
  0.8735       46.549
  0.8305       46.552
  0.7895       46.5645
  0.741        46.5915
  0.7185       46.6075
  0.7165       46.609500000000004
  0.717        46.61
  0.6935       46.6305
  0.685        46.6365
  0.667        46.654
  0.6525       46.672000000000004
  0.6365       46.698
  0.621        46.7095
  0.617        46.714
  0.606        46.722
  0.596        46.731
  0.586        46.742000000000004
  0.579        46.747
  0.5695       46.756
  0.5485       46.7575
  0.5385       46.7565
  0.51         46.7425
  0.475        46.7325
  0.4395       46.7295
  0.404        46.7325
  0.3855       46.737500000000004
  0.379        46.7385
  0.3715       46.736000000000004
  0.3295       46.7305
  0.287        46.734
  0.245        46.747
  0.229        46.7545
  0.2265       46.7565
  0.214        46.763
  0.2005       46.7715
  0.1675       46.799
  0.1445       46.8275
  0.1215       46.868500000000004
  0.1115       46.871
  0.1          46.8755
  0.061        46.897
  0.0285       46.9255
  -0.004       46.9375
  -0.034       46.955
  -0.069       46.9865
  -0.0735      46.9915
  -0.097       47.0245
  -0.1005      47.032000000000004
  -0.1065      47.042
  -0.112       47.048500000000004
  -0.131       47.0845
  -0.143       47.123
  -0.1465      47.1635
  -0.1455      47.178000000000004
  -0.147       47.2035
END
END
