polygon
1
  0.58         49.575
  0.625        49.615
  0.62         49.625
  0.625        49.64
  0.665        49.665
  0.66         49.685
  0.65         49.69
  0.65         49.705
  0.67         49.735
  0.755        49.77
  0.76         49.785000000000004
  0.8          49.79
  0.815        49.805
  0.865        49.805
  0.9          49.795
  0.905        49.775
  0.92         49.77
  0.94         49.735
  0.95         49.730000000000004
  0.95         49.705
  0.965        49.705
  0.99         49.685
  1.01         49.68
  1.02         49.665
  1.02         49.645
  1.065        49.665
  1.095        49.665
  1.13         49.65
  1.15         49.65
  1.18         49.695
  1.24         49.7
  1.25         49.69
  1.255        49.665
  1.27         49.65
  1.265        49.63
  1.285        49.615
  1.365        49.63
  1.385        49.655
  1.4          49.655
  1.45         49.635
  1.455        49.620000000000005
  1.45         49.61
  1.47         49.595
  1.465        49.56
  1.455        49.550000000000004
  1.455        49.52
  1.44         49.52
  1.42         49.5
  1.43         49.46
  1.37         49.43
  1.36         49.415
  1.335        49.410000000000004
  1.33         49.39
  1.31         49.375
  1.3          49.345
  1.285        49.33
  1.22         49.33
  1.205        49.315
  1.195        49.32
  1.155        49.315
  1.155        49.300000000000004
  1.14         49.29
  1.085        49.29
  1.09         49.27
  1.08         49.245000000000005
  1.03         49.24
  1.015        49.230000000000004
  0.995        49.230000000000004
  0.98         49.235
  0.97         49.25
  0.95         49.25
  0.93         49.27
  0.93         49.29
  0.92         49.28
  0.895        49.275
  0.865        49.305
  0.835        49.305
  0.82         49.33
  0.835        49.355000000000004
  0.86         49.365
  0.86         49.375
  0.82         49.375
  0.805        49.38
  0.795        49.395
  0.66         49.38
  0.615        49.405
  0.61         49.435
  0.645        49.47
  0.645        49.480000000000004
  0.62         49.480000000000004
  0.61         49.49
  0.605        49.51
  0.61         49.52
  0.595        49.53
  0.595        49.54
  0.58         49.545
  0.58         49.565
  0.58         49.575
END
END
