polygon
1
   -1.945000   49.650000
   -1.965000   49.665000
   -1.965000   49.690000
   -1.975000   49.700000
   -1.975000   49.730000
   -1.935000   49.750000
   -1.905000   49.745000
   -1.880000   49.730000
   -1.850000   49.740000
   -1.815000   49.720000
   -1.815000   49.710000
   -1.775000   49.700000
   -1.705000   49.700000
   -1.695000   49.690000
   -1.565000   49.695000
   -1.550000   49.675000
   -1.515000   49.680000
   -1.495000   49.695000
   -1.485000   49.715000
   -1.450000   49.715000
   -1.430000   49.725000
   -1.410000   49.720000
   -1.325000   49.725000
   -1.310000   49.715000
   -1.255000   49.715000
   -1.245000   49.705000
   -1.245000   49.685000
   -1.225000   49.670000
   -1.220000   49.645000
   -1.210000   49.635000
   -1.210000   49.595000
   -1.220000   49.590000
   -1.230000   49.565000
   -1.255000   49.565000
   -1.265000   49.550000
   -1.285000   49.555000
   -1.290000   49.550000
   -1.235000   49.490000
   -1.215000   49.480000
   -1.145000   49.415000
   -1.135000   49.375000
   -1.085000   49.410000
   -1.025000   49.410000
   -0.985000   49.420000
   -0.925000   49.415000
   -0.895000   49.395000
   -0.825000   49.375000
   -0.755000   49.375000
   -0.725000   49.365000
   -0.695000   49.370000
   -0.630000   49.360000
   -0.495000   49.365000
   -0.450000   49.355000
   -0.390000   49.355000
   -0.295000   49.315000
   -0.250000   49.315000
   -0.230000   49.305000
   -0.155000   49.305000
   0.000000   49.345000
   0.040000   49.365000
   0.055000   49.385000
   0.090000   49.400000
   0.095000   49.410000
   0.115000   49.415000
   0.115000   49.440000
   0.100000   49.440000
   0.070000   49.475000
   0.070000   49.485000
   0.050000   49.495000
   0.045000   49.525000
   0.125000   49.640000
   0.100000   49.650000
   0.100000   49.675000
   0.115000   49.690000
   0.145000   49.690000
   0.195000   49.735000
   0.245000   49.740000
   0.285000   49.760000
   0.320000   49.760000
   0.345000   49.770000
   0.365000   49.790000
   0.440000   49.810000
   0.580000   49.875000
   0.605000   49.875000
   0.625000   49.885000
   0.675000   49.885000
   0.705000   49.895000
   0.770000   49.890000
   0.825000   49.910000
   0.925000   49.925000
   0.950000   49.940000
   1.025000   49.935000
   1.065000   49.945000
   1.080000   49.960000
   1.105000   49.955000
   1.115000   49.965000
   1.135000   49.965000
   1.185000   49.985000
   1.195000   50.000000
   1.235000   50.010000
   1.275000   50.040000
   1.365000   50.085000
   1.460000   50.090000
   1.480000   50.070000
   1.480000   50.050000
   1.530000   50.030000
   1.540000   50.010000
   1.580000   49.995000
   1.615000   49.960000
   1.680000   49.940000
   1.710000   49.910000
   1.720000   49.910000
   1.735000   49.890000
   1.750000   49.825000
   1.765000   49.815000
   1.770000   49.800000
   1.805000   49.775000
   1.805000   49.750000
   1.795000   49.740000
   1.765000   49.735000
   1.755000   49.720000
   1.770000   49.705000
   1.770000   49.670000
   1.740000   49.655000
   1.735000   49.605000
   1.750000   49.560000
   1.765000   49.550000
   1.770000   49.535000
   1.800000   49.525000
   1.810000   49.510000
   1.810000   49.485000
   1.795000   49.470000
   1.795000   49.460000
   1.745000   49.425000
   1.760000   49.415000
   1.760000   49.390000
   1.780000   49.380000
   1.780000   49.360000
   1.795000   49.340000
   1.790000   49.320000
   1.815000   49.300000
   1.825000   49.270000
   1.805000   49.230000
   1.795000   49.225000
   1.755000   49.235000
   1.745000   49.250000
   1.725000   49.245000
   1.725000   49.220000
   1.695000   49.200000
   1.680000   49.130000
   1.645000   49.095000
   1.640000   49.070000
   1.620000   49.060000
   1.580000   49.060000
   1.570000   49.050000
   1.520000   49.050000
   1.515000   49.040000
   1.500000   49.040000
   1.490000   49.030000
   1.500000   49.005000
   1.515000   49.005000
   1.540000   48.985000
   1.530000   48.945000
   1.500000   48.915000
   1.480000   48.920000
   1.490000   48.910000
   1.490000   48.885000
   1.465000   48.850000
   1.410000   48.840000
   1.380000   48.820000
   1.400000   48.790000
   1.390000   48.765000
   1.360000   48.760000
   1.335000   48.740000
   1.285000   48.745000
   1.270000   48.735000
   1.240000   48.745000
   1.210000   48.740000
   1.200000   48.750000
   1.145000   48.755000
   1.120000   48.725000
   1.055000   48.730000
   1.045000   48.710000
   0.970000   48.705000
   0.960000   48.695000
   0.935000   48.690000
   0.890000   48.695000
   0.875000   48.670000
   0.845000   48.660000
   0.850000   48.630000
   0.865000   48.620000
   0.870000   48.595000
   0.935000   48.580000
   0.955000   48.565000
   0.960000   48.545000
   0.975000   48.545000
   0.985000   48.535000
   0.990000   48.520000
   0.975000   48.500000
   0.970000   48.465000
   0.995000   48.455000
   0.995000   48.430000
   0.970000   48.410000
   0.970000   48.390000
   0.960000   48.380000
   0.950000   48.380000
   0.890000   48.335000
   0.830000   48.320000
   0.800000   48.325000
   0.795000   48.315000
   0.825000   48.305000
   0.830000   48.295000
   0.815000   48.265000
   0.845000   48.230000
   0.850000   48.200000
   0.810000   48.175000
   0.750000   48.160000
   0.725000   48.170000
   0.660000   48.240000
   0.660000   48.230000
   0.645000   48.215000
   0.525000   48.230000
   0.465000   48.285000
   0.425000   48.285000
   0.415000   48.295000
   0.385000   48.300000
   0.360000   48.335000
   0.365000   48.355000
   0.355000   48.375000
   0.350000   48.435000
   0.295000   48.460000
   0.230000   48.450000
   0.220000   48.455000
   0.155000   48.415000
   0.130000   48.415000
   0.105000   48.390000
   0.080000   48.390000
   0.085000   48.380000
   0.070000   48.360000
   0.010000   48.360000
   -0.010000   48.370000
   -0.060000   48.355000
   -0.080000   48.385000
   -0.075000   48.430000
   -0.105000   48.425000
   -0.155000   48.435000
   -0.170000   48.450000
   -0.175000   48.485000
   -0.190000   48.490000
   -0.195000   48.505000
   -0.190000   48.525000
   -0.205000   48.540000
   -0.220000   48.540000
   -0.230000   48.515000
   -0.245000   48.510000
   -0.260000   48.490000
   -0.290000   48.485000
   -0.305000   48.500000
   -0.315000   48.500000
   -0.345000   48.465000
   -0.370000   48.465000
   -0.400000   48.485000
   -0.430000   48.485000
   -0.450000   48.495000
   -0.475000   48.480000
   -0.500000   48.485000
   -0.555000   48.450000
   -0.595000   48.450000
   -0.640000   48.425000
   -0.665000   48.425000
   -0.675000   48.450000
   -0.695000   48.450000
   -0.705000   48.430000
   -0.750000   48.415000
   -0.770000   48.415000
   -0.800000   48.440000
   -0.820000   48.435000
   -0.835000   48.450000
   -0.835000   48.460000
   -0.855000   48.470000
   -0.855000   48.480000
   -0.915000   48.475000
   -0.945000   48.495000
   -0.965000   48.475000
   -1.020000   48.470000
   -1.055000   48.490000
   -1.165000   48.500000
   -1.175000   48.510000
   -1.205000   48.510000
   -1.225000   48.520000
   -1.230000   48.515000
   -1.250000   48.520000
   -1.270000   48.490000
   -1.310000   48.480000
   -1.340000   48.450000
   -1.375000   48.435000
   -1.430000   48.440000
   -1.450000   48.450000
   -1.460000   48.465000
   -1.500000   48.470000
   -1.510000   48.495000
   -1.550000   48.535000
   -1.550000   48.560000
   -1.565000   48.575000
   -1.565000   48.590000
   -1.590000   48.615000
   -1.590000   48.635000
   -1.580000   48.645000
   -1.535000   48.650000
   -1.525000   48.680000
   -1.540000   48.710000
   -1.570000   48.715000
   -1.590000   48.735000
   -1.595000   48.810000
   -1.625000   48.815000
   -1.635000   48.830000
   -1.625000   48.855000
   -1.610000   48.855000
   -1.595000   48.870000
   -1.590000   48.915000
   -1.580000   48.935000
   -1.585000   48.980000
   -1.605000   48.995000
   -1.630000   49.060000
   -1.630000   49.110000
   -1.615000   49.130000
   -1.620000   49.180000
   -1.665000   49.215000
   -1.680000   49.255000
   -1.695000   49.265000
   -1.720000   49.305000
   -1.730000   49.305000
   -1.775000   49.350000
   -1.810000   49.350000
   -1.830000   49.365000
   -1.845000   49.400000
   -1.845000   49.450000
   -1.860000   49.455000
   -1.865000   49.490000
   -1.900000   49.505000
   -1.910000   49.525000
   -1.905000   49.550000
   -1.870000   49.570000
   -1.860000   49.585000
   -1.865000   49.620000
   -1.880000   49.640000
   -1.930000   49.650000
   -1.945000   49.650000
END
4
   -1.170000   49.475000
   -1.175000   49.485000
   -1.175000   49.505000
   -1.150000   49.520000
   -1.130000   49.515000
   -1.125000   49.490000
   -1.140000   49.475000
   -1.160000   49.475000
   -1.170000   49.475000
END
5
   -1.665000   49.115000
   -1.650000   49.115000
   -1.635000   49.090000
   -1.645000   49.075000
   -1.665000   49.070000
   -1.680000   49.080000
   -1.685000   49.090000
   -1.680000   49.100000
   -1.665000   49.115000
END
6
   -1.890000   48.890000
   -1.875000   48.905000
   -1.860000   48.905000
   -1.850000   48.915000
   -1.815000   48.915000
   -1.775000   48.895000
   -1.745000   48.895000
   -1.735000   48.885000
   -1.735000   48.860000
   -1.760000   48.850000
   -1.795000   48.855000
   -1.845000   48.850000
   -1.880000   48.865000
   -1.890000   48.880000
   -1.890000   48.890000
END
END
