polygon
1
  -0.647       46.7905
  -0.6715      46.788000000000004
  -0.6835      46.788000000000004
  -0.695       46.785000000000004
  -0.738       46.7855
  -0.7655      46.7915
  -0.7835      46.783
  -0.7985      46.779
  -0.8045      46.7765
  -0.827       46.7715
  -0.853       46.769
  -0.891       46.771
  -0.9185      46.778
  -0.9235      46.7785
  -0.9245      46.7795
  -0.936       46.781
  -0.9745      46.794000000000004
  -0.9795      46.7965
  -1.006       46.800000000000004
  -1.018       46.804
  -1.0675      46.805
  -1.0995      46.8095
  -1.1055      46.8115
  -1.1525      46.8205
  -1.1605      46.823
  -1.1605      46.824
  -1.1715      46.826
  -1.187       46.83
  -1.1935      46.8325
  -1.2085      46.8355
  -1.256       46.859500000000004
  -1.288       46.886
  -1.3035      46.9035
  -1.34        46.9185
  -1.365       46.935
  -1.373       46.942
  -1.383       46.949
  -1.408       46.976
  -1.4275      47.007
  -1.4425      47.045500000000004
  -1.449       47.0855
  -1.447       47.1285
  -1.46        47.1345
  -1.491       47.158500000000004
  -1.517       47.188
  -1.5365      47.222
  -1.549       47.259
  -1.554       47.2975
  -1.5515      47.3365
  -1.5415      47.3745
  -1.5245      47.4095
  -1.5005      47.4405
  -1.4715      47.4665
  -1.441       47.489000000000004
  -1.4         47.5105
  -1.358       47.5285
  -1.348       47.5315
  -1.3335      47.5345
  -1.3465      47.5495
  -1.351       47.558
  -1.3795      47.574
  -1.405       47.599000000000004
  -1.4265      47.6275
  -1.442       47.6595
  -1.4515      47.694
  -1.4555      47.730000000000004
  -1.4535      47.7705
  -1.4455      47.804500000000004
  -1.4445      47.8115
  -1.4415      47.821
  -1.4385      47.848
  -1.4285      47.882
  -1.4125      47.9135
  -1.3915      47.9415
  -1.381       47.9525
  -1.3595      47.97
  -1.349       47.9775
  -1.3245      47.991
  -1.2835      48.005
  -1.241       48.0095
  -1.232       48.0095
  -1.2005      48.006
  -1.1945      48.004
  -1.179       48.0015
  -1.1685      47.9975
  -1.1505      47.993
  -1.131       47.984
  -1.1095      47.9835
  -1.0825      47.9805
  -1.059       47.979
  -1.048       47.976
  -1.0155      47.9885
  -0.981       47.9955
  -0.9545      47.9965
  -0.9375      47.996
  -0.9135      47.993
  -0.908       47.9915
  -0.887       47.9885
  -0.869       47.9835
  -0.853       47.9775
  -0.8385      47.9705
  -0.806       47.971000000000004
  -0.7685      47.9655
  -0.727       47.951
  -0.701       47.944
  -0.693       47.944
  -0.6765      47.941
  -0.673       47.9415
  -0.6655      47.9405
  -0.6555      47.946
  -0.6325      47.952
  -0.63        47.954
  -0.597       47.972
  -0.5615      47.983000000000004
  -0.525       47.987500000000004
  -0.4795      47.984
  -0.45        47.9775
  -0.4255      47.9805
  -0.389       47.979
  -0.3545      47.9715
  -0.3485      47.969500000000004
  -0.3385      47.966
  -0.2945      47.9475
  -0.276       47.9365
  -0.2525      47.9185
  -0.2135      47.925000000000004
  -0.2085      47.9245
  -0.1845      47.925000000000004
  -0.158       47.9215
  -0.1365      47.916000000000004
  -0.1095      47.905
  -0.0995      47.902
  -0.066       47.8845
  -0.035       47.86
  -0.031       47.855000000000004
  -0.0155      47.852000000000004
  -0.003       47.847
  0.008        47.847500000000004
  0.045        47.8415
  0.083        47.828
  0.1185       47.806000000000004
  0.123        47.806000000000004
  0.132        47.8095
  0.161        47.815
  0.176        47.8165
  0.176        47.8155
  0.2095       47.8165
  0.2315       47.8125
  0.2425       47.8115
  0.2825       47.804
  0.3205       47.788000000000004
  0.354        47.765
  0.3575       47.762
  0.3565       47.761
  0.3745       47.747
  0.4025       47.711
  0.4175       47.681000000000004
  0.4275       47.65
  0.431        47.6295
  0.434        47.6045
  0.433        47.5905
  0.4345       47.579
  0.4305       47.539
  0.426        47.5235
  0.422        47.486000000000004
  0.4165       47.4685
  0.4125       47.448
  0.4          47.414500000000004
  0.383        47.3865
  0.381        47.3495
  0.372        47.314
  0.3565       47.281
  0.3355       47.251
  0.3095       47.225500000000004
  0.302        47.2205
  0.2915       47.207
  0.2775       47.1935
  0.2695       47.1555
  0.2555       47.124
  0.2495       47.103
  0.238        47.0785
  0.223        47.055
  0.2055       47.033
  0.1895       47.0175
  0.1775       47.0065
  0.145        46.9855
  0.1345       46.981500000000004
  0.126        46.969
  0.1245       46.968
  0.12         46.9605
  0.091        46.9315
  0.0565       46.909
  0.015        46.893
  -0.008       46.8895
  -0.027       46.88
  -0.0315      46.8785
  -0.036       46.8755
  -0.0725      46.862500000000004
  -0.109       46.8555
  -0.1495      46.8555
  -0.173       46.8605
  -0.1735      46.859500000000004
  -0.238       46.8775
  -0.2555      46.8845
  -0.277       46.8955
  -0.2815      46.895
  -0.2945      46.892
  -0.314       46.8895
  -0.356       46.873
  -0.3975      46.8665
  -0.4065      46.867000000000004
  -0.423       46.861000000000004
  -0.445       46.857
  -0.4505      46.853
  -0.464       46.847500000000004
  -0.469       46.8425
  -0.502       46.821
  -0.538       46.8065
  -0.5535      46.803000000000004
  -0.565       46.7995
  -0.568       46.799
  -0.5685      46.7995
  -0.576       46.797000000000004
  -0.587       46.795
  -0.628       46.792500000000004
  -0.6375      46.793
  -0.647       46.7905
END
END
