polygon
1
  0.43         47.34
  0.465        47.355000000000004
  0.47         47.365
  0.445        47.405
  0.445        47.43
  0.46         47.445
  0.52         47.455
  0.53         47.47
  0.555        47.480000000000004
  0.58         47.47
  0.595        47.47
  0.62         47.485
  0.64         47.480000000000004
  0.65         47.5
  0.69         47.51
  0.7          47.52
  0.735        47.52
  0.755        47.5
  0.77         47.5
  0.78         47.485
  0.795        47.485
  0.81         47.505
  0.85         47.505
  0.865        47.485
  0.865        47.465
  0.885        47.45
  0.89         47.435
  0.885        47.38
  0.81         47.375
  0.8          47.355000000000004
  0.78         47.355000000000004
  0.785        47.32
  0.765        47.300000000000004
  0.685        47.29
  0.67         47.28
  0.59         47.285000000000004
  0.545        47.255
  0.515        47.25
  0.475        47.27
  0.47         47.28
  0.475        47.300000000000004
  0.435        47.300000000000004
  0.425        47.32
  0.43         47.34
END
END
